<mxfile host="app.diagrams.net" modified="2023-07-04T20:48:38.348Z" agent="Mozilla/5.0 (Windows NT 10.0; Win64; x64) AppleWebKit/537.36 (KHTML, like Gecko) Chrome/114.0.0.0 Safari/537.36" etag="C-sWLhxFcWtfwipso_0d" version="21.5.2" type="github">
  <diagram id="R2lEEEUBdFMjLlhIrx00" name="Page-1">
    <mxGraphModel dx="1430" dy="770" grid="1" gridSize="10" guides="1" tooltips="1" connect="1" arrows="1" fold="1" page="1" pageScale="1" pageWidth="850" pageHeight="1100" background="#0D5752" math="0" shadow="0" extFonts="Permanent Marker^https://fonts.googleapis.com/css?family=Permanent+Marker">
      <root>
        <mxCell id="0" />
        <mxCell id="1" parent="0" />
        <mxCell id="xtBjh4fdduiDJycLXYyy-10" value="Clinic" style="whiteSpace=wrap;html=1;align=center;fillColor=#f5f5f5;fontColor=#333333;strokeColor=#000000;" parent="1" vertex="1">
          <mxGeometry x="460" y="480" width="80" height="40" as="geometry" />
        </mxCell>
        <mxCell id="xtBjh4fdduiDJycLXYyy-11" value="Department" style="whiteSpace=wrap;html=1;align=center;fillColor=#f5f5f5;fontColor=#333333;strokeColor=#000000;" parent="1" vertex="1">
          <mxGeometry x="730" y="610" width="80" height="40" as="geometry" />
        </mxCell>
        <mxCell id="xtBjh4fdduiDJycLXYyy-12" value="Result" style="whiteSpace=wrap;html=1;align=center;fillColor=#f5f5f5;fontColor=#333333;strokeColor=#000000;" parent="1" vertex="1">
          <mxGeometry x="410" y="855" width="80" height="40" as="geometry" />
        </mxCell>
        <mxCell id="xtBjh4fdduiDJycLXYyy-63" value="" style="group" parent="1" vertex="1" connectable="0">
          <mxGeometry x="210" y="100" width="160" height="90" as="geometry" />
        </mxCell>
        <mxCell id="xtBjh4fdduiDJycLXYyy-2" value="Account" style="whiteSpace=wrap;html=1;align=center;fillColor=#f5f5f5;fontColor=#333333;strokeColor=#000000;" parent="xtBjh4fdduiDJycLXYyy-63" vertex="1">
          <mxGeometry x="40" y="50" width="80" height="40" as="geometry" />
        </mxCell>
        <mxCell id="xtBjh4fdduiDJycLXYyy-13" value="" style="ellipse;whiteSpace=wrap;html=1;aspect=fixed;strokeColor=#000000;" parent="xtBjh4fdduiDJycLXYyy-63" vertex="1">
          <mxGeometry y="20" width="20" height="20" as="geometry" />
        </mxCell>
        <mxCell id="xtBjh4fdduiDJycLXYyy-14" value="" style="ellipse;whiteSpace=wrap;html=1;aspect=fixed;fillColor=#f5f5f5;fontColor=#333333;strokeColor=#000000;" parent="xtBjh4fdduiDJycLXYyy-63" vertex="1">
          <mxGeometry x="70" y="20" width="20" height="20" as="geometry" />
        </mxCell>
        <mxCell id="xtBjh4fdduiDJycLXYyy-15" value="" style="ellipse;whiteSpace=wrap;html=1;aspect=fixed;fillColor=#f5f5f5;fontColor=#333333;strokeColor=#000000;" parent="xtBjh4fdduiDJycLXYyy-63" vertex="1">
          <mxGeometry x="140" y="20" width="20" height="20" as="geometry" />
        </mxCell>
        <mxCell id="xtBjh4fdduiDJycLXYyy-16" value="" style="endArrow=none;html=1;rounded=0;entryX=0.483;entryY=0.889;entryDx=0;entryDy=0;strokeColor=#18141d;exitX=0;exitY=0;exitDx=0;exitDy=0;entryPerimeter=0;" parent="xtBjh4fdduiDJycLXYyy-63" source="xtBjh4fdduiDJycLXYyy-2" target="xtBjh4fdduiDJycLXYyy-13" edge="1">
          <mxGeometry width="50" height="50" relative="1" as="geometry">
            <mxPoint x="40" y="40" as="sourcePoint" />
            <mxPoint x="440" y="230" as="targetPoint" />
          </mxGeometry>
        </mxCell>
        <mxCell id="xtBjh4fdduiDJycLXYyy-17" value="" style="endArrow=none;html=1;rounded=0;entryX=0.5;entryY=1;entryDx=0;entryDy=0;exitX=0.5;exitY=0;exitDx=0;exitDy=0;strokeColor=#18141d;" parent="xtBjh4fdduiDJycLXYyy-63" source="xtBjh4fdduiDJycLXYyy-2" target="xtBjh4fdduiDJycLXYyy-14" edge="1">
          <mxGeometry width="50" height="50" relative="1" as="geometry">
            <mxPoint x="80" y="60" as="sourcePoint" />
            <mxPoint x="60" y="20" as="targetPoint" />
          </mxGeometry>
        </mxCell>
        <mxCell id="xtBjh4fdduiDJycLXYyy-18" value="" style="endArrow=none;html=1;rounded=0;entryX=0.5;entryY=1;entryDx=0;entryDy=0;exitX=1;exitY=0;exitDx=0;exitDy=0;strokeColor=#18141d;" parent="xtBjh4fdduiDJycLXYyy-63" source="xtBjh4fdduiDJycLXYyy-2" target="xtBjh4fdduiDJycLXYyy-15" edge="1">
          <mxGeometry width="50" height="50" relative="1" as="geometry">
            <mxPoint x="95" y="61" as="sourcePoint" />
            <mxPoint x="100" y="20" as="targetPoint" />
          </mxGeometry>
        </mxCell>
        <mxCell id="xtBjh4fdduiDJycLXYyy-19" value="Id" style="text;html=1;align=center;verticalAlign=middle;whiteSpace=wrap;rounded=0;fontColor=#000000;" parent="xtBjh4fdduiDJycLXYyy-63" vertex="1">
          <mxGeometry width="20" height="20" as="geometry" />
        </mxCell>
        <mxCell id="xtBjh4fdduiDJycLXYyy-20" value="Login" style="text;html=1;align=center;verticalAlign=middle;whiteSpace=wrap;rounded=0;fontColor=#000000;" parent="xtBjh4fdduiDJycLXYyy-63" vertex="1">
          <mxGeometry x="70" width="20" height="20" as="geometry" />
        </mxCell>
        <mxCell id="xtBjh4fdduiDJycLXYyy-21" value="Password" style="text;html=1;align=center;verticalAlign=middle;whiteSpace=wrap;rounded=0;fontColor=#000000;" parent="xtBjh4fdduiDJycLXYyy-63" vertex="1">
          <mxGeometry x="140" width="20" height="20" as="geometry" />
        </mxCell>
        <mxCell id="xtBjh4fdduiDJycLXYyy-6" value="Employer" style="whiteSpace=wrap;html=1;align=center;fillColor=#f5f5f5;fontColor=#333333;strokeColor=#000000;" parent="1" vertex="1">
          <mxGeometry x="560" y="240" width="80" height="40" as="geometry" />
        </mxCell>
        <mxCell id="xtBjh4fdduiDJycLXYyy-8" value="Medic" style="whiteSpace=wrap;html=1;align=center;fillColor=#f5f5f5;fontColor=#333333;strokeColor=#000000;" parent="1" vertex="1">
          <mxGeometry x="460" y="330" width="80" height="40" as="geometry" />
        </mxCell>
        <mxCell id="xtBjh4fdduiDJycLXYyy-9" value="Administrator" style="whiteSpace=wrap;html=1;align=center;fillColor=#f5f5f5;fontColor=#333333;strokeColor=#000000;" parent="1" vertex="1">
          <mxGeometry x="660" y="330" width="80" height="40" as="geometry" />
        </mxCell>
        <mxCell id="xtBjh4fdduiDJycLXYyy-45" value="" style="ellipse;whiteSpace=wrap;html=1;aspect=fixed;fillColor=#f5f5f5;fontColor=#333333;strokeColor=#000000;" parent="1" vertex="1">
          <mxGeometry x="540" y="200" width="20" height="20" as="geometry" />
        </mxCell>
        <mxCell id="xtBjh4fdduiDJycLXYyy-46" value="Name" style="text;html=1;align=center;verticalAlign=middle;whiteSpace=wrap;rounded=0;fontColor=#000000;" parent="1" vertex="1">
          <mxGeometry x="540" y="180" width="20" height="20" as="geometry" />
        </mxCell>
        <mxCell id="xtBjh4fdduiDJycLXYyy-47" value="" style="ellipse;whiteSpace=wrap;html=1;aspect=fixed;fillColor=#f5f5f5;fontColor=#333333;strokeColor=#000000;" parent="1" vertex="1">
          <mxGeometry x="590" y="200" width="20" height="20" as="geometry" />
        </mxCell>
        <mxCell id="xtBjh4fdduiDJycLXYyy-48" value="Surname" style="text;html=1;align=center;verticalAlign=middle;whiteSpace=wrap;rounded=0;fontColor=#000000;" parent="1" vertex="1">
          <mxGeometry x="590" y="180" width="20" height="20" as="geometry" />
        </mxCell>
        <mxCell id="xtBjh4fdduiDJycLXYyy-49" value="" style="ellipse;whiteSpace=wrap;html=1;aspect=fixed;fillColor=#f5f5f5;fontColor=#333333;strokeColor=#000000;" parent="1" vertex="1">
          <mxGeometry x="640" y="200" width="20" height="20" as="geometry" />
        </mxCell>
        <mxCell id="xtBjh4fdduiDJycLXYyy-50" value="Age" style="text;html=1;align=center;verticalAlign=middle;whiteSpace=wrap;rounded=0;fontColor=#000000;" parent="1" vertex="1">
          <mxGeometry x="640" y="180" width="20" height="20" as="geometry" />
        </mxCell>
        <mxCell id="xtBjh4fdduiDJycLXYyy-51" value="" style="ellipse;whiteSpace=wrap;html=1;aspect=fixed;fillColor=#000000;fontColor=#333333;strokeColor=#000000;" parent="1" vertex="1">
          <mxGeometry x="660" y="250" width="20" height="20" as="geometry" />
        </mxCell>
        <mxCell id="xtBjh4fdduiDJycLXYyy-52" value="PC" style="text;html=1;align=center;verticalAlign=middle;whiteSpace=wrap;rounded=0;fontColor=#000000;" parent="1" vertex="1">
          <mxGeometry x="660" y="270" width="20" height="20" as="geometry" />
        </mxCell>
        <mxCell id="xtBjh4fdduiDJycLXYyy-53" value="" style="endArrow=none;html=1;rounded=0;exitX=0.5;exitY=1;exitDx=0;exitDy=0;strokeColor=#18141d;entryX=0.5;entryY=0;entryDx=0;entryDy=0;" parent="1" source="xtBjh4fdduiDJycLXYyy-47" target="xtBjh4fdduiDJycLXYyy-6" edge="1">
          <mxGeometry width="50" height="50" relative="1" as="geometry">
            <mxPoint x="330" y="440" as="sourcePoint" />
            <mxPoint x="590" y="240" as="targetPoint" />
          </mxGeometry>
        </mxCell>
        <mxCell id="xtBjh4fdduiDJycLXYyy-54" value="" style="endArrow=none;html=1;rounded=0;exitX=0.5;exitY=1;exitDx=0;exitDy=0;strokeColor=#18141d;entryX=1;entryY=0;entryDx=0;entryDy=0;" parent="1" source="xtBjh4fdduiDJycLXYyy-49" target="xtBjh4fdduiDJycLXYyy-6" edge="1">
          <mxGeometry width="50" height="50" relative="1" as="geometry">
            <mxPoint x="610" y="230" as="sourcePoint" />
            <mxPoint x="610" y="260" as="targetPoint" />
          </mxGeometry>
        </mxCell>
        <mxCell id="xtBjh4fdduiDJycLXYyy-55" value="" style="endArrow=none;html=1;rounded=0;exitX=0.5;exitY=1;exitDx=0;exitDy=0;strokeColor=#18141d;entryX=0;entryY=0;entryDx=0;entryDy=0;" parent="1" source="xtBjh4fdduiDJycLXYyy-45" target="xtBjh4fdduiDJycLXYyy-6" edge="1">
          <mxGeometry width="50" height="50" relative="1" as="geometry">
            <mxPoint x="610" y="230" as="sourcePoint" />
            <mxPoint x="610" y="260" as="targetPoint" />
          </mxGeometry>
        </mxCell>
        <mxCell id="xtBjh4fdduiDJycLXYyy-56" value="" style="endArrow=none;html=1;rounded=0;strokeColor=#18141d;entryX=1;entryY=0.5;entryDx=0;entryDy=0;exitX=0;exitY=0.5;exitDx=0;exitDy=0;" parent="1" source="xtBjh4fdduiDJycLXYyy-51" target="xtBjh4fdduiDJycLXYyy-6" edge="1">
          <mxGeometry width="50" height="50" relative="1" as="geometry">
            <mxPoint x="660" y="280" as="sourcePoint" />
            <mxPoint x="570" y="260" as="targetPoint" />
          </mxGeometry>
        </mxCell>
        <mxCell id="xtBjh4fdduiDJycLXYyy-67" value="(p,e)" style="text;html=1;strokeColor=none;fillColor=none;align=center;verticalAlign=middle;whiteSpace=wrap;rounded=0;fontColor=#000000;" parent="1" vertex="1">
          <mxGeometry x="610" y="300" width="20" height="10" as="geometry" />
        </mxCell>
        <mxCell id="xtBjh4fdduiDJycLXYyy-68" value="" style="ellipse;whiteSpace=wrap;html=1;aspect=fixed;fillColor=#f5f5f5;fontColor=#333333;strokeColor=#000000;" parent="1" vertex="1">
          <mxGeometry x="490" y="380" width="20" height="20" as="geometry" />
        </mxCell>
        <mxCell id="xtBjh4fdduiDJycLXYyy-69" value="Specialization" style="text;html=1;align=center;verticalAlign=middle;whiteSpace=wrap;rounded=0;fontColor=#000000;" parent="1" vertex="1">
          <mxGeometry x="490" y="400" width="20" height="20" as="geometry" />
        </mxCell>
        <mxCell id="xtBjh4fdduiDJycLXYyy-70" value="" style="endArrow=none;html=1;rounded=0;exitX=0.5;exitY=0;exitDx=0;exitDy=0;strokeColor=#18141d;entryX=0.5;entryY=1;entryDx=0;entryDy=0;" parent="1" source="xtBjh4fdduiDJycLXYyy-68" edge="1">
          <mxGeometry width="50" height="50" relative="1" as="geometry">
            <mxPoint x="540" y="490" as="sourcePoint" />
            <mxPoint x="500" y="370" as="targetPoint" />
          </mxGeometry>
        </mxCell>
        <mxCell id="xtBjh4fdduiDJycLXYyy-72" value="" style="ellipse;whiteSpace=wrap;html=1;aspect=fixed;fillColor=#f5f5f5;fontColor=#333333;strokeColor=#000000;" parent="1" vertex="1">
          <mxGeometry x="690" y="380" width="20" height="20" as="geometry" />
        </mxCell>
        <mxCell id="xtBjh4fdduiDJycLXYyy-73" value="Administration type" style="text;html=1;align=center;verticalAlign=middle;whiteSpace=wrap;rounded=0;fontColor=#000000;" parent="1" vertex="1">
          <mxGeometry x="660" y="410" width="80" height="20" as="geometry" />
        </mxCell>
        <mxCell id="xtBjh4fdduiDJycLXYyy-74" value="" style="endArrow=none;html=1;rounded=0;exitX=0.5;exitY=0;exitDx=0;exitDy=0;strokeColor=#18141d;entryX=0.5;entryY=1;entryDx=0;entryDy=0;" parent="1" source="xtBjh4fdduiDJycLXYyy-72" edge="1">
          <mxGeometry width="50" height="50" relative="1" as="geometry">
            <mxPoint x="540" y="390" as="sourcePoint" />
            <mxPoint x="700" y="370" as="targetPoint" />
          </mxGeometry>
        </mxCell>
        <mxCell id="xtBjh4fdduiDJycLXYyy-40" value="" style="ellipse;whiteSpace=wrap;html=1;aspect=fixed;fillColor=#000000;fontColor=#333333;strokeColor=#000000;" parent="1" vertex="1">
          <mxGeometry x="30" y="230" width="20" height="20" as="geometry" />
        </mxCell>
        <mxCell id="xtBjh4fdduiDJycLXYyy-41" value="PC" style="text;html=1;align=center;verticalAlign=middle;whiteSpace=wrap;rounded=0;fontColor=#000000;" parent="1" vertex="1">
          <mxGeometry x="30" y="210" width="20" height="20" as="geometry" />
        </mxCell>
        <mxCell id="xtBjh4fdduiDJycLXYyy-42" value="" style="endArrow=none;html=1;rounded=0;entryX=1;entryY=0.5;entryDx=0;entryDy=0;strokeColor=#18141d;exitX=0;exitY=0.5;exitDx=0;exitDy=0;" parent="1" source="xtBjh4fdduiDJycLXYyy-5" target="xtBjh4fdduiDJycLXYyy-40" edge="1">
          <mxGeometry width="50" height="50" relative="1" as="geometry">
            <mxPoint x="220" y="510" as="sourcePoint" />
            <mxPoint x="190" y="330" as="targetPoint" />
          </mxGeometry>
        </mxCell>
        <mxCell id="xtBjh4fdduiDJycLXYyy-5" value="Patient" style="whiteSpace=wrap;html=1;align=center;fillColor=#f5f5f5;fontColor=#333333;strokeColor=#000000;" parent="1" vertex="1">
          <mxGeometry x="90" y="240" width="80" height="40" as="geometry" />
        </mxCell>
        <mxCell id="xtBjh4fdduiDJycLXYyy-22" value="" style="ellipse;whiteSpace=wrap;html=1;aspect=fixed;fillColor=#f5f5f5;fontColor=#333333;strokeColor=#000000;" parent="1" vertex="1">
          <mxGeometry x="70" y="200" width="20" height="20" as="geometry" />
        </mxCell>
        <mxCell id="xtBjh4fdduiDJycLXYyy-23" value="Name" style="text;html=1;align=center;verticalAlign=middle;whiteSpace=wrap;rounded=0;fontColor=#000000;" parent="1" vertex="1">
          <mxGeometry x="70" y="180" width="20" height="20" as="geometry" />
        </mxCell>
        <mxCell id="xtBjh4fdduiDJycLXYyy-24" value="" style="ellipse;whiteSpace=wrap;html=1;aspect=fixed;fillColor=#f5f5f5;fontColor=#333333;strokeColor=#000000;" parent="1" vertex="1">
          <mxGeometry x="120" y="200" width="20" height="20" as="geometry" />
        </mxCell>
        <mxCell id="xtBjh4fdduiDJycLXYyy-25" value="Surname" style="text;html=1;align=center;verticalAlign=middle;whiteSpace=wrap;rounded=0;fontColor=#000000;" parent="1" vertex="1">
          <mxGeometry x="120" y="180" width="20" height="20" as="geometry" />
        </mxCell>
        <mxCell id="xtBjh4fdduiDJycLXYyy-29" value="Address" style="ellipse;whiteSpace=wrap;html=1;align=center;fillColor=#f5f5f5;fontColor=#333333;strokeColor=#000000;" parent="1" vertex="1">
          <mxGeometry x="100" y="300" width="60" height="30" as="geometry" />
        </mxCell>
        <mxCell id="xtBjh4fdduiDJycLXYyy-30" value="" style="endArrow=none;html=1;rounded=0;entryX=0.5;entryY=1;entryDx=0;entryDy=0;exitX=0.5;exitY=0;exitDx=0;exitDy=0;strokeColor=#18141d;" parent="1" source="xtBjh4fdduiDJycLXYyy-5" target="xtBjh4fdduiDJycLXYyy-24" edge="1">
          <mxGeometry width="50" height="50" relative="1" as="geometry">
            <mxPoint x="130" y="240" as="sourcePoint" />
            <mxPoint x="100" y="60" as="targetPoint" />
          </mxGeometry>
        </mxCell>
        <mxCell id="xtBjh4fdduiDJycLXYyy-31" value="" style="endArrow=none;html=1;rounded=0;entryX=0.5;entryY=1;entryDx=0;entryDy=0;exitX=0;exitY=0;exitDx=0;exitDy=0;strokeColor=#18141d;" parent="1" source="xtBjh4fdduiDJycLXYyy-5" target="xtBjh4fdduiDJycLXYyy-22" edge="1">
          <mxGeometry width="50" height="50" relative="1" as="geometry">
            <mxPoint x="180" y="250" as="sourcePoint" />
            <mxPoint x="160" y="230" as="targetPoint" />
          </mxGeometry>
        </mxCell>
        <mxCell id="xtBjh4fdduiDJycLXYyy-32" value="" style="endArrow=none;html=1;rounded=0;entryX=0.5;entryY=0;entryDx=0;entryDy=0;exitX=0.5;exitY=1;exitDx=0;exitDy=0;strokeColor=#18141d;" parent="1" source="xtBjh4fdduiDJycLXYyy-5" target="xtBjh4fdduiDJycLXYyy-29" edge="1">
          <mxGeometry width="50" height="50" relative="1" as="geometry">
            <mxPoint x="100" y="250" as="sourcePoint" />
            <mxPoint x="110" y="230" as="targetPoint" />
          </mxGeometry>
        </mxCell>
        <mxCell id="xtBjh4fdduiDJycLXYyy-35" value="" style="ellipse;whiteSpace=wrap;html=1;aspect=fixed;fillColor=#f5f5f5;fontColor=#333333;strokeColor=#000000;" parent="1" vertex="1">
          <mxGeometry x="170" y="200" width="20" height="20" as="geometry" />
        </mxCell>
        <mxCell id="xtBjh4fdduiDJycLXYyy-36" value="Age" style="text;html=1;align=center;verticalAlign=middle;whiteSpace=wrap;rounded=0;fontColor=#000000;" parent="1" vertex="1">
          <mxGeometry x="170" y="180" width="20" height="20" as="geometry" />
        </mxCell>
        <mxCell id="xtBjh4fdduiDJycLXYyy-37" value="" style="endArrow=none;html=1;rounded=0;entryX=0.5;entryY=1;entryDx=0;entryDy=0;strokeColor=#18141d;exitX=1;exitY=0;exitDx=0;exitDy=0;" parent="1" source="xtBjh4fdduiDJycLXYyy-5" target="xtBjh4fdduiDJycLXYyy-35" edge="1">
          <mxGeometry width="50" height="50" relative="1" as="geometry">
            <mxPoint x="170" y="240" as="sourcePoint" />
            <mxPoint x="140" y="60" as="targetPoint" />
          </mxGeometry>
        </mxCell>
        <mxCell id="xtBjh4fdduiDJycLXYyy-57" value="" style="endArrow=classic;html=1;rounded=0;strokeColor=#000000;entryX=0.5;entryY=1;entryDx=0;entryDy=0;" parent="1" target="xtBjh4fdduiDJycLXYyy-6" edge="1">
          <mxGeometry width="50" height="50" relative="1" as="geometry">
            <mxPoint x="600" y="320" as="sourcePoint" />
            <mxPoint x="460" y="310" as="targetPoint" />
          </mxGeometry>
        </mxCell>
        <mxCell id="xtBjh4fdduiDJycLXYyy-58" value="" style="endArrow=none;html=1;rounded=0;strokeColor=#000000;" parent="1" edge="1">
          <mxGeometry width="50" height="50" relative="1" as="geometry">
            <mxPoint x="500" y="320" as="sourcePoint" />
            <mxPoint x="700" y="320" as="targetPoint" />
          </mxGeometry>
        </mxCell>
        <mxCell id="xtBjh4fdduiDJycLXYyy-59" value="" style="endArrow=none;html=1;rounded=0;strokeColor=#000000;exitX=0.5;exitY=0;exitDx=0;exitDy=0;" parent="1" edge="1">
          <mxGeometry width="50" height="50" relative="1" as="geometry">
            <mxPoint x="500" y="330" as="sourcePoint" />
            <mxPoint x="500" y="320" as="targetPoint" />
          </mxGeometry>
        </mxCell>
        <mxCell id="xtBjh4fdduiDJycLXYyy-60" value="" style="endArrow=none;html=1;rounded=0;strokeColor=#000000;exitX=0.5;exitY=0;exitDx=0;exitDy=0;" parent="1" edge="1">
          <mxGeometry width="50" height="50" relative="1" as="geometry">
            <mxPoint x="700" y="330" as="sourcePoint" />
            <mxPoint x="700" y="320" as="targetPoint" />
          </mxGeometry>
        </mxCell>
        <mxCell id="xtBjh4fdduiDJycLXYyy-87" value="Work schedule" style="whiteSpace=wrap;html=1;align=center;fillColor=#f5f5f5;fontColor=#333333;strokeColor=#000000;" parent="1" vertex="1">
          <mxGeometry x="60" y="402.5" width="80" height="40" as="geometry" />
        </mxCell>
        <mxCell id="xtBjh4fdduiDJycLXYyy-88" value="" style="ellipse;whiteSpace=wrap;html=1;aspect=fixed;fillColor=#f5f5f5;fontColor=#333333;strokeColor=#000000;" parent="1" vertex="1">
          <mxGeometry x="130" y="478.75" width="20" height="20" as="geometry" />
        </mxCell>
        <mxCell id="xtBjh4fdduiDJycLXYyy-89" value="Day of the week" style="text;html=1;align=center;verticalAlign=middle;whiteSpace=wrap;rounded=0;fontColor=#000000;" parent="1" vertex="1">
          <mxGeometry x="100" y="501.25" width="80" height="20" as="geometry" />
        </mxCell>
        <mxCell id="xtBjh4fdduiDJycLXYyy-91" value="" style="ellipse;whiteSpace=wrap;html=1;aspect=fixed;fillColor=#f5f5f5;fontColor=#333333;strokeColor=#000000;" parent="1" vertex="1">
          <mxGeometry x="50" y="372.5" width="20" height="20" as="geometry" />
        </mxCell>
        <mxCell id="xtBjh4fdduiDJycLXYyy-92" value="Start time" style="text;html=1;align=center;verticalAlign=middle;whiteSpace=wrap;rounded=0;fontColor=#000000;" parent="1" vertex="1">
          <mxGeometry x="20" y="352.5" width="80" height="20" as="geometry" />
        </mxCell>
        <mxCell id="xtBjh4fdduiDJycLXYyy-93" value="" style="endArrow=none;html=1;rounded=0;exitX=0.5;exitY=1;exitDx=0;exitDy=0;strokeColor=#18141d;entryX=0;entryY=0;entryDx=0;entryDy=0;" parent="1" source="xtBjh4fdduiDJycLXYyy-91" target="xtBjh4fdduiDJycLXYyy-87" edge="1">
          <mxGeometry width="50" height="50" relative="1" as="geometry">
            <mxPoint x="140" y="462.5" as="sourcePoint" />
            <mxPoint x="60" y="342.5" as="targetPoint" />
          </mxGeometry>
        </mxCell>
        <mxCell id="xtBjh4fdduiDJycLXYyy-94" value="" style="ellipse;whiteSpace=wrap;html=1;aspect=fixed;fillColor=#f5f5f5;fontColor=#333333;strokeColor=#000000;" parent="1" vertex="1">
          <mxGeometry x="130" y="372.5" width="20" height="20" as="geometry" />
        </mxCell>
        <mxCell id="xtBjh4fdduiDJycLXYyy-95" value="End time" style="text;html=1;align=center;verticalAlign=middle;whiteSpace=wrap;rounded=0;fontColor=#000000;" parent="1" vertex="1">
          <mxGeometry x="100" y="352.5" width="80" height="20" as="geometry" />
        </mxCell>
        <mxCell id="xtBjh4fdduiDJycLXYyy-96" value="" style="endArrow=none;html=1;rounded=0;exitX=0.5;exitY=1;exitDx=0;exitDy=0;strokeColor=#18141d;entryX=1;entryY=0;entryDx=0;entryDy=0;" parent="1" source="xtBjh4fdduiDJycLXYyy-94" target="xtBjh4fdduiDJycLXYyy-87" edge="1">
          <mxGeometry width="50" height="50" relative="1" as="geometry">
            <mxPoint x="210" y="452.5" as="sourcePoint" />
            <mxPoint x="130" y="332.5" as="targetPoint" />
          </mxGeometry>
        </mxCell>
        <mxCell id="xtBjh4fdduiDJycLXYyy-100" value="" style="ellipse;whiteSpace=wrap;html=1;aspect=fixed;fillColor=#000000;fontColor=#333333;strokeColor=#000000;" parent="1" vertex="1">
          <mxGeometry x="10" y="412.5" width="20" height="20" as="geometry" />
        </mxCell>
        <mxCell id="xtBjh4fdduiDJycLXYyy-101" value="Id" style="text;html=1;align=center;verticalAlign=middle;whiteSpace=wrap;rounded=0;fontColor=#000000;" parent="1" vertex="1">
          <mxGeometry x="10" y="392.5" width="20" height="20" as="geometry" />
        </mxCell>
        <mxCell id="xtBjh4fdduiDJycLXYyy-102" value="" style="endArrow=none;html=1;rounded=0;exitX=1;exitY=0.5;exitDx=0;exitDy=0;strokeColor=#18141d;entryX=0;entryY=0.5;entryDx=0;entryDy=0;" parent="1" source="xtBjh4fdduiDJycLXYyy-100" target="xtBjh4fdduiDJycLXYyy-87" edge="1">
          <mxGeometry width="50" height="50" relative="1" as="geometry">
            <mxPoint x="61" y="395.5" as="sourcePoint" />
            <mxPoint x="60" y="422.5" as="targetPoint" />
          </mxGeometry>
        </mxCell>
        <mxCell id="xtBjh4fdduiDJycLXYyy-103" value="Address" style="ellipse;whiteSpace=wrap;html=1;align=center;fillColor=#f5f5f5;fontColor=#333333;strokeColor=#000000;" parent="1" vertex="1">
          <mxGeometry x="470" y="537.5" width="60" height="30" as="geometry" />
        </mxCell>
        <mxCell id="xtBjh4fdduiDJycLXYyy-104" value="" style="endArrow=none;html=1;rounded=0;entryX=0.5;entryY=0;entryDx=0;entryDy=0;exitX=0.5;exitY=1;exitDx=0;exitDy=0;strokeColor=#18141d;" parent="1" source="xtBjh4fdduiDJycLXYyy-10" target="xtBjh4fdduiDJycLXYyy-103" edge="1">
          <mxGeometry width="50" height="50" relative="1" as="geometry">
            <mxPoint x="500" y="532.5" as="sourcePoint" />
            <mxPoint x="480" y="482.5" as="targetPoint" />
          </mxGeometry>
        </mxCell>
        <mxCell id="xtBjh4fdduiDJycLXYyy-105" value="Specialization" style="text;html=1;align=center;verticalAlign=middle;whiteSpace=wrap;rounded=0;fontColor=#000000;" parent="1" vertex="1">
          <mxGeometry x="760" y="695" width="20" height="15" as="geometry" />
        </mxCell>
        <mxCell id="xtBjh4fdduiDJycLXYyy-106" value="" style="ellipse;whiteSpace=wrap;html=1;aspect=fixed;fillColor=#FFFFFF;fontColor=#333333;strokeColor=#000000;" parent="1" vertex="1">
          <mxGeometry x="760" y="675" width="20" height="20" as="geometry" />
        </mxCell>
        <mxCell id="xtBjh4fdduiDJycLXYyy-107" value="" style="endArrow=none;html=1;rounded=0;strokeColor=#18141d;entryX=0.5;entryY=1;entryDx=0;entryDy=0;exitX=0.5;exitY=0;exitDx=0;exitDy=0;" parent="1" source="xtBjh4fdduiDJycLXYyy-106" target="xtBjh4fdduiDJycLXYyy-11" edge="1">
          <mxGeometry width="50" height="50" relative="1" as="geometry">
            <mxPoint x="810" y="675" as="sourcePoint" />
            <mxPoint x="500" y="680" as="targetPoint" />
            <Array as="points" />
          </mxGeometry>
        </mxCell>
        <mxCell id="xtBjh4fdduiDJycLXYyy-110" value="" style="ellipse;whiteSpace=wrap;html=1;aspect=fixed;fillColor=#f5f5f5;fontColor=#333333;strokeColor=#000000;" parent="1" vertex="1">
          <mxGeometry x="440" y="825" width="20" height="20" as="geometry" />
        </mxCell>
        <mxCell id="xtBjh4fdduiDJycLXYyy-111" value="Document" style="text;html=1;align=center;verticalAlign=middle;whiteSpace=wrap;rounded=0;fontColor=#000000;" parent="1" vertex="1">
          <mxGeometry x="420" y="805" width="60" height="20" as="geometry" />
        </mxCell>
        <mxCell id="xtBjh4fdduiDJycLXYyy-112" value="" style="endArrow=none;html=1;rounded=0;strokeColor=#18141d;entryX=0.5;entryY=0;entryDx=0;entryDy=0;exitX=0.5;exitY=1;exitDx=0;exitDy=0;" parent="1" source="xtBjh4fdduiDJycLXYyy-110" target="xtBjh4fdduiDJycLXYyy-12" edge="1">
          <mxGeometry width="50" height="50" relative="1" as="geometry">
            <mxPoint x="460" y="805" as="sourcePoint" />
            <mxPoint x="630" y="665" as="targetPoint" />
          </mxGeometry>
        </mxCell>
        <mxCell id="xtBjh4fdduiDJycLXYyy-114" value="PatientAccount" style="shape=rhombus;perimeter=rhombusPerimeter;whiteSpace=wrap;html=1;align=center;strokeColor=#000000;fillColor=#f5f5f5;fontColor=#333333;" parent="1" vertex="1">
          <mxGeometry x="230" y="230" width="120" height="60" as="geometry" />
        </mxCell>
        <mxCell id="xtBjh4fdduiDJycLXYyy-115" value="" style="ellipse;whiteSpace=wrap;html=1;aspect=fixed;fillColor=#f5f5f5;fontColor=#333333;strokeColor=#000000;" parent="1" vertex="1">
          <mxGeometry x="440" y="925" width="20" height="20" as="geometry" />
        </mxCell>
        <mxCell id="xtBjh4fdduiDJycLXYyy-116" value="Date" style="text;html=1;align=center;verticalAlign=middle;whiteSpace=wrap;rounded=0;fontColor=#000000;" parent="1" vertex="1">
          <mxGeometry x="440" y="945" width="20" height="20" as="geometry" />
        </mxCell>
        <mxCell id="xtBjh4fdduiDJycLXYyy-117" value="" style="endArrow=none;html=1;rounded=0;strokeColor=#18141d;entryX=0.5;entryY=1;entryDx=0;entryDy=0;exitX=0.5;exitY=0;exitDx=0;exitDy=0;" parent="1" source="xtBjh4fdduiDJycLXYyy-115" target="xtBjh4fdduiDJycLXYyy-12" edge="1">
          <mxGeometry width="50" height="50" relative="1" as="geometry">
            <mxPoint x="460" y="855" as="sourcePoint" />
            <mxPoint x="460" y="865" as="targetPoint" />
          </mxGeometry>
        </mxCell>
        <mxCell id="xtBjh4fdduiDJycLXYyy-118" value="" style="endArrow=none;html=1;rounded=0;strokeColor=#000000;fontColor=#000000;exitX=1;exitY=0.5;exitDx=0;exitDy=0;entryX=0;entryY=0.5;entryDx=0;entryDy=0;" parent="1" source="xtBjh4fdduiDJycLXYyy-5" target="xtBjh4fdduiDJycLXYyy-114" edge="1">
          <mxGeometry relative="1" as="geometry">
            <mxPoint x="190" y="300" as="sourcePoint" />
            <mxPoint x="290" y="290" as="targetPoint" />
          </mxGeometry>
        </mxCell>
        <mxCell id="xtBjh4fdduiDJycLXYyy-119" value="(0,1)" style="resizable=0;html=1;whiteSpace=wrap;align=right;verticalAlign=bottom;fontColor=#000000;" parent="xtBjh4fdduiDJycLXYyy-118" connectable="0" vertex="1">
          <mxGeometry x="1" relative="1" as="geometry">
            <mxPoint as="offset" />
          </mxGeometry>
        </mxCell>
        <mxCell id="xtBjh4fdduiDJycLXYyy-122" value="WorkerAccount" style="shape=rhombus;perimeter=rhombusPerimeter;whiteSpace=wrap;html=1;align=center;strokeColor=#000000;fillColor=#f5f5f5;fontColor=#333333;" parent="1" vertex="1">
          <mxGeometry x="380" y="230" width="120" height="60" as="geometry" />
        </mxCell>
        <mxCell id="xtBjh4fdduiDJycLXYyy-123" value="" style="endArrow=none;html=1;rounded=0;strokeColor=#000000;fontColor=#000000;exitX=0;exitY=0.5;exitDx=0;exitDy=0;entryX=1;entryY=0.5;entryDx=0;entryDy=0;" parent="1" source="xtBjh4fdduiDJycLXYyy-6" target="xtBjh4fdduiDJycLXYyy-122" edge="1">
          <mxGeometry relative="1" as="geometry">
            <mxPoint x="450" y="299.43" as="sourcePoint" />
            <mxPoint x="510" y="299.43" as="targetPoint" />
          </mxGeometry>
        </mxCell>
        <mxCell id="xtBjh4fdduiDJycLXYyy-124" value="(0,1)" style="resizable=0;html=1;whiteSpace=wrap;align=right;verticalAlign=bottom;fontColor=#000000;" parent="xtBjh4fdduiDJycLXYyy-123" connectable="0" vertex="1">
          <mxGeometry x="1" relative="1" as="geometry">
            <mxPoint x="30" as="offset" />
          </mxGeometry>
        </mxCell>
        <mxCell id="xtBjh4fdduiDJycLXYyy-127" value="EmployerWorkSchedule" style="shape=rhombus;perimeter=rhombusPerimeter;whiteSpace=wrap;html=1;align=center;strokeColor=#000000;fillColor=#f5f5f5;fontColor=#333333;" parent="1" vertex="1">
          <mxGeometry x="260" y="513.75" width="200" height="92.5" as="geometry" />
        </mxCell>
        <mxCell id="xtBjh4fdduiDJycLXYyy-132" value="" style="endArrow=none;html=1;rounded=0;strokeColor=#000000;fontColor=#000000;exitX=1;exitY=0.75;exitDx=0;exitDy=0;entryX=0;entryY=0.5;entryDx=0;entryDy=0;" parent="1" source="xtBjh4fdduiDJycLXYyy-87" target="xtBjh4fdduiDJycLXYyy-127" edge="1">
          <mxGeometry relative="1" as="geometry">
            <mxPoint x="210" y="489.71000000000004" as="sourcePoint" />
            <mxPoint x="270" y="489.71000000000004" as="targetPoint" />
            <Array as="points">
              <mxPoint x="200" y="433" />
              <mxPoint x="200" y="560" />
            </Array>
          </mxGeometry>
        </mxCell>
        <mxCell id="xtBjh4fdduiDJycLXYyy-133" value="(0,N)" style="resizable=0;html=1;whiteSpace=wrap;align=right;verticalAlign=bottom;fontColor=#000000;" parent="xtBjh4fdduiDJycLXYyy-132" connectable="0" vertex="1">
          <mxGeometry x="1" relative="1" as="geometry">
            <mxPoint as="offset" />
          </mxGeometry>
        </mxCell>
        <mxCell id="xtBjh4fdduiDJycLXYyy-135" value="ClinicSchedule" style="shape=rhombus;perimeter=rhombusPerimeter;whiteSpace=wrap;html=1;align=center;strokeColor=#000000;fillColor=#f5f5f5;fontColor=#333333;" parent="1" vertex="1">
          <mxGeometry x="270" y="330" width="120" height="60" as="geometry" />
        </mxCell>
        <mxCell id="xtBjh4fdduiDJycLXYyy-136" value="" style="endArrow=none;html=1;rounded=0;strokeColor=#000000;fontColor=#000000;exitX=1;exitY=0.25;exitDx=0;exitDy=0;entryX=0;entryY=0.5;entryDx=0;entryDy=0;" parent="1" source="xtBjh4fdduiDJycLXYyy-87" target="xtBjh4fdduiDJycLXYyy-135" edge="1">
          <mxGeometry relative="1" as="geometry">
            <mxPoint x="170" y="630" as="sourcePoint" />
            <mxPoint x="370" y="590" as="targetPoint" />
            <Array as="points">
              <mxPoint x="200" y="413" />
              <mxPoint x="200" y="360" />
            </Array>
          </mxGeometry>
        </mxCell>
        <mxCell id="xtBjh4fdduiDJycLXYyy-137" value="(0,N)" style="resizable=0;html=1;whiteSpace=wrap;align=right;verticalAlign=bottom;fontColor=#000000;" parent="xtBjh4fdduiDJycLXYyy-136" connectable="0" vertex="1">
          <mxGeometry x="1" relative="1" as="geometry">
            <mxPoint as="offset" />
          </mxGeometry>
        </mxCell>
        <mxCell id="xtBjh4fdduiDJycLXYyy-140" value="" style="endArrow=none;html=1;rounded=0;strokeColor=#000000;fontColor=#000000;exitX=0;exitY=0.5;exitDx=0;exitDy=0;entryX=0.5;entryY=1;entryDx=0;entryDy=0;" parent="1" source="xtBjh4fdduiDJycLXYyy-10" target="xtBjh4fdduiDJycLXYyy-135" edge="1">
          <mxGeometry relative="1" as="geometry">
            <mxPoint x="180" y="640" as="sourcePoint" />
            <mxPoint x="380" y="600" as="targetPoint" />
            <Array as="points">
              <mxPoint x="330" y="500" />
            </Array>
          </mxGeometry>
        </mxCell>
        <mxCell id="xtBjh4fdduiDJycLXYyy-141" value="(1,N)" style="resizable=0;html=1;whiteSpace=wrap;align=right;verticalAlign=bottom;fontColor=#000000;" parent="xtBjh4fdduiDJycLXYyy-140" connectable="0" vertex="1">
          <mxGeometry x="1" relative="1" as="geometry">
            <mxPoint x="30" y="20" as="offset" />
          </mxGeometry>
        </mxCell>
        <mxCell id="xtBjh4fdduiDJycLXYyy-142" value="" style="ellipse;whiteSpace=wrap;html=1;aspect=fixed;fillColor=#000000;fontColor=#333333;strokeColor=#000000;" parent="1" vertex="1">
          <mxGeometry x="490" y="452.5" width="20" height="20" as="geometry" />
        </mxCell>
        <mxCell id="xtBjh4fdduiDJycLXYyy-143" value="Id" style="text;html=1;align=center;verticalAlign=middle;whiteSpace=wrap;rounded=0;fontColor=#000000;" parent="1" vertex="1">
          <mxGeometry x="490" y="432.5" width="20" height="20" as="geometry" />
        </mxCell>
        <mxCell id="xtBjh4fdduiDJycLXYyy-144" value="" style="endArrow=none;html=1;rounded=0;exitX=0.5;exitY=1;exitDx=0;exitDy=0;strokeColor=#18141d;entryX=0.5;entryY=0;entryDx=0;entryDy=0;" parent="1" source="xtBjh4fdduiDJycLXYyy-142" target="xtBjh4fdduiDJycLXYyy-10" edge="1">
          <mxGeometry width="50" height="50" relative="1" as="geometry">
            <mxPoint x="521" y="435.5" as="sourcePoint" />
            <mxPoint x="520" y="462.5" as="targetPoint" />
          </mxGeometry>
        </mxCell>
        <mxCell id="xtBjh4fdduiDJycLXYyy-150" value="PrimaryMedic" style="shape=rhombus;perimeter=rhombusPerimeter;whiteSpace=wrap;html=1;align=center;strokeColor=#000000;fillColor=#f5f5f5;fontColor=#333333;" parent="1" vertex="1">
          <mxGeometry x="710" y="515" width="120" height="60" as="geometry" />
        </mxCell>
        <mxCell id="xtBjh4fdduiDJycLXYyy-151" value="" style="endArrow=none;html=1;rounded=0;strokeColor=#000000;fontColor=#000000;exitX=0.5;exitY=0;exitDx=0;exitDy=0;entryX=0.5;entryY=1;entryDx=0;entryDy=0;" parent="1" source="xtBjh4fdduiDJycLXYyy-11" target="xtBjh4fdduiDJycLXYyy-150" edge="1">
          <mxGeometry relative="1" as="geometry">
            <mxPoint x="440" y="570" as="sourcePoint" />
            <mxPoint x="670" y="570" as="targetPoint" />
            <Array as="points" />
          </mxGeometry>
        </mxCell>
        <mxCell id="xtBjh4fdduiDJycLXYyy-152" value="(1,1)" style="resizable=0;html=1;whiteSpace=wrap;align=right;verticalAlign=bottom;fontColor=#000000;" parent="xtBjh4fdduiDJycLXYyy-151" connectable="0" vertex="1">
          <mxGeometry x="1" relative="1" as="geometry">
            <mxPoint x="40" y="10" as="offset" />
          </mxGeometry>
        </mxCell>
        <mxCell id="xtBjh4fdduiDJycLXYyy-153" value="" style="endArrow=none;html=1;rounded=0;strokeColor=#000000;fontColor=#000000;exitX=1;exitY=0.75;exitDx=0;exitDy=0;entryX=0;entryY=0.5;entryDx=0;entryDy=0;" parent="1" source="xtBjh4fdduiDJycLXYyy-8" target="xtBjh4fdduiDJycLXYyy-150" edge="1">
          <mxGeometry relative="1" as="geometry">
            <mxPoint x="730" y="710" as="sourcePoint" />
            <mxPoint x="610" y="440" as="targetPoint" />
            <Array as="points">
              <mxPoint x="600" y="360" />
              <mxPoint x="600" y="545" />
            </Array>
          </mxGeometry>
        </mxCell>
        <mxCell id="xtBjh4fdduiDJycLXYyy-154" value="(0,N)" style="resizable=0;html=1;whiteSpace=wrap;align=right;verticalAlign=bottom;fontColor=#000000;" parent="xtBjh4fdduiDJycLXYyy-153" connectable="0" vertex="1">
          <mxGeometry x="1" relative="1" as="geometry">
            <mxPoint as="offset" />
          </mxGeometry>
        </mxCell>
        <mxCell id="xtBjh4fdduiDJycLXYyy-162" value="" style="endArrow=none;html=1;rounded=0;strokeColor=#000000;fontColor=#000000;exitX=0.5;exitY=1;exitDx=0;exitDy=0;entryX=0.5;entryY=0;entryDx=0;entryDy=0;" parent="1" source="xtBjh4fdduiDJycLXYyy-2" target="xtBjh4fdduiDJycLXYyy-114" edge="1">
          <mxGeometry relative="1" as="geometry">
            <mxPoint x="180" y="270" as="sourcePoint" />
            <mxPoint x="240" y="270" as="targetPoint" />
          </mxGeometry>
        </mxCell>
        <mxCell id="xtBjh4fdduiDJycLXYyy-163" value="(0,1)" style="resizable=0;html=1;whiteSpace=wrap;align=right;verticalAlign=bottom;fontColor=#000000;" parent="xtBjh4fdduiDJycLXYyy-162" connectable="0" vertex="1">
          <mxGeometry x="1" relative="1" as="geometry">
            <mxPoint x="30" as="offset" />
          </mxGeometry>
        </mxCell>
        <mxCell id="xtBjh4fdduiDJycLXYyy-164" value="" style="endArrow=none;html=1;rounded=0;strokeColor=#000000;fontColor=#000000;exitX=1;exitY=0.5;exitDx=0;exitDy=0;entryX=0.5;entryY=0;entryDx=0;entryDy=0;" parent="1" source="xtBjh4fdduiDJycLXYyy-2" target="xtBjh4fdduiDJycLXYyy-122" edge="1">
          <mxGeometry relative="1" as="geometry">
            <mxPoint x="300" y="150" as="sourcePoint" />
            <mxPoint x="300" y="240" as="targetPoint" />
            <Array as="points">
              <mxPoint x="440" y="170" />
            </Array>
          </mxGeometry>
        </mxCell>
        <mxCell id="xtBjh4fdduiDJycLXYyy-165" value="(0,1)" style="resizable=0;html=1;whiteSpace=wrap;align=right;verticalAlign=bottom;fontColor=#000000;" parent="xtBjh4fdduiDJycLXYyy-164" connectable="0" vertex="1">
          <mxGeometry x="1" relative="1" as="geometry">
            <mxPoint x="30" as="offset" />
          </mxGeometry>
        </mxCell>
        <mxCell id="xtBjh4fdduiDJycLXYyy-166" value="" style="endArrow=none;html=1;rounded=0;strokeColor=#000000;fontColor=#000000;entryX=0.5;entryY=1;entryDx=0;entryDy=0;exitX=0.75;exitY=1;exitDx=0;exitDy=0;" parent="1" source="xtBjh4fdduiDJycLXYyy-196" target="xtBjh4fdduiDJycLXYyy-127" edge="1">
          <mxGeometry relative="1" as="geometry">
            <mxPoint x="1120" y="740" as="sourcePoint" />
            <mxPoint x="350" y="460" as="targetPoint" />
            <Array as="points">
              <mxPoint x="1071" y="720" />
              <mxPoint x="360" y="720" />
            </Array>
          </mxGeometry>
        </mxCell>
        <mxCell id="xtBjh4fdduiDJycLXYyy-167" value="(1,N)" style="resizable=0;html=1;whiteSpace=wrap;align=right;verticalAlign=bottom;fontColor=#000000;labelBackgroundColor=none;" parent="xtBjh4fdduiDJycLXYyy-166" connectable="0" vertex="1">
          <mxGeometry x="1" relative="1" as="geometry">
            <mxPoint x="30" y="20" as="offset" />
          </mxGeometry>
        </mxCell>
        <mxCell id="xtBjh4fdduiDJycLXYyy-168" value="ClinicDepartment" style="shape=rhombus;perimeter=rhombusPerimeter;whiteSpace=wrap;html=1;align=center;strokeColor=#000000;fillColor=#f5f5f5;fontColor=#333333;" parent="1" vertex="1">
          <mxGeometry x="600" y="569" width="120" height="60" as="geometry" />
        </mxCell>
        <mxCell id="xtBjh4fdduiDJycLXYyy-169" value="" style="endArrow=none;html=1;rounded=0;strokeColor=#000000;fontColor=#000000;exitX=1;exitY=0.75;exitDx=0;exitDy=0;entryX=0;entryY=0.5;entryDx=0;entryDy=0;" parent="1" source="xtBjh4fdduiDJycLXYyy-10" target="xtBjh4fdduiDJycLXYyy-168" edge="1">
          <mxGeometry relative="1" as="geometry">
            <mxPoint x="360" y="570" as="sourcePoint" />
            <mxPoint x="520" y="870" as="targetPoint" />
            <Array as="points">
              <mxPoint x="560" y="510" />
              <mxPoint x="560" y="599" />
            </Array>
          </mxGeometry>
        </mxCell>
        <mxCell id="xtBjh4fdduiDJycLXYyy-170" value="(1,N)" style="resizable=0;html=1;whiteSpace=wrap;align=right;verticalAlign=bottom;fontColor=#000000;" parent="xtBjh4fdduiDJycLXYyy-169" connectable="0" vertex="1">
          <mxGeometry x="1" relative="1" as="geometry">
            <mxPoint as="offset" />
          </mxGeometry>
        </mxCell>
        <mxCell id="xtBjh4fdduiDJycLXYyy-171" value="" style="endArrow=none;html=1;rounded=0;strokeColor=#000000;fontColor=#000000;entryX=0.5;entryY=1;entryDx=0;entryDy=0;exitX=0.25;exitY=1;exitDx=0;exitDy=0;" parent="1" source="xtBjh4fdduiDJycLXYyy-11" target="xtBjh4fdduiDJycLXYyy-168" edge="1">
          <mxGeometry relative="1" as="geometry">
            <mxPoint x="860" y="660" as="sourcePoint" />
            <mxPoint x="730" y="750" as="targetPoint" />
            <Array as="points">
              <mxPoint x="750" y="680" />
              <mxPoint x="660" y="680" />
              <mxPoint x="660" y="630" />
            </Array>
          </mxGeometry>
        </mxCell>
        <mxCell id="xtBjh4fdduiDJycLXYyy-172" value="(1,1)" style="resizable=0;html=1;whiteSpace=wrap;align=right;verticalAlign=bottom;fontColor=#000000;" parent="xtBjh4fdduiDJycLXYyy-171" connectable="0" vertex="1">
          <mxGeometry x="1" relative="1" as="geometry">
            <mxPoint x="30" y="20" as="offset" />
          </mxGeometry>
        </mxCell>
        <mxCell id="xtBjh4fdduiDJycLXYyy-175" value="" style="curved=1;endArrow=none;html=1;rounded=0;endFill=0;exitX=0;exitY=0.5;exitDx=0;exitDy=0;strokeColor=#000000;" parent="1" source="xtBjh4fdduiDJycLXYyy-178" edge="1">
          <mxGeometry width="50" height="50" relative="1" as="geometry">
            <mxPoint x="850" y="645" as="sourcePoint" />
            <mxPoint x="720" y="620" as="targetPoint" />
            <Array as="points">
              <mxPoint x="690" y="680" />
            </Array>
          </mxGeometry>
        </mxCell>
        <mxCell id="xtBjh4fdduiDJycLXYyy-178" value="" style="ellipse;whiteSpace=wrap;html=1;aspect=fixed;fillColor=#000000;fontColor=#333333;strokeColor=#000000;" parent="1" vertex="1">
          <mxGeometry x="810" y="655" width="20" height="20" as="geometry" />
        </mxCell>
        <mxCell id="xtBjh4fdduiDJycLXYyy-189" value="Employment" style="whiteSpace=wrap;html=1;align=center;fillColor=#f5f5f5;fontColor=#333333;strokeColor=#000000;" parent="1" vertex="1">
          <mxGeometry x="1020" y="180" width="160" height="40" as="geometry" />
        </mxCell>
        <mxCell id="xtBjh4fdduiDJycLXYyy-190" value="" style="endArrow=none;html=1;rounded=0;strokeColor=#000000;" parent="1" edge="1">
          <mxGeometry width="50" height="50" relative="1" as="geometry">
            <mxPoint x="1030" y="267.5" as="sourcePoint" />
            <mxPoint x="1200" y="267.5" as="targetPoint" />
          </mxGeometry>
        </mxCell>
        <mxCell id="xtBjh4fdduiDJycLXYyy-191" value="" style="endArrow=classic;html=1;rounded=0;strokeColor=#000000;" parent="1" edge="1">
          <mxGeometry width="50" height="50" relative="1" as="geometry">
            <mxPoint x="1100" y="267.5" as="sourcePoint" />
            <mxPoint x="1100" y="216.25" as="targetPoint" />
          </mxGeometry>
        </mxCell>
        <mxCell id="xtBjh4fdduiDJycLXYyy-192" value="(t,e)" style="text;html=1;strokeColor=none;fillColor=none;align=center;verticalAlign=middle;whiteSpace=wrap;rounded=0;fontColor=#000000;" parent="1" vertex="1">
          <mxGeometry x="1107.5" y="231.25" width="20" height="10" as="geometry" />
        </mxCell>
        <mxCell id="xtBjh4fdduiDJycLXYyy-193" value="" style="endArrow=none;html=1;rounded=0;strokeColor=#000000;exitX=0.5;exitY=0;exitDx=0;exitDy=0;" parent="1" source="xtBjh4fdduiDJycLXYyy-195" edge="1">
          <mxGeometry width="50" height="50" relative="1" as="geometry">
            <mxPoint x="1197.21" y="256.25" as="sourcePoint" />
            <mxPoint x="1200" y="267.5" as="targetPoint" />
          </mxGeometry>
        </mxCell>
        <mxCell id="xtBjh4fdduiDJycLXYyy-194" value="" style="endArrow=none;html=1;rounded=0;strokeColor=#000000;exitX=0.5;exitY=0;exitDx=0;exitDy=0;" parent="1" source="xtBjh4fdduiDJycLXYyy-196" edge="1">
          <mxGeometry width="50" height="50" relative="1" as="geometry">
            <mxPoint x="997.21" y="256.25" as="sourcePoint" />
            <mxPoint x="1030" y="267.5" as="targetPoint" />
          </mxGeometry>
        </mxCell>
        <mxCell id="xtBjh4fdduiDJycLXYyy-195" value="PastEmployment" style="whiteSpace=wrap;html=1;align=center;fillColor=#f5f5f5;fontColor=#333333;strokeColor=#000000;" parent="1" vertex="1">
          <mxGeometry x="1125" y="300" width="150" height="40" as="geometry" />
        </mxCell>
        <mxCell id="xtBjh4fdduiDJycLXYyy-196" value="CurrentEmployment" style="whiteSpace=wrap;html=1;align=center;fillColor=#f5f5f5;fontColor=#333333;strokeColor=#000000;" parent="1" vertex="1">
          <mxGeometry x="949" y="300" width="162" height="40" as="geometry" />
        </mxCell>
        <mxCell id="xtBjh4fdduiDJycLXYyy-198" value="Start date" style="text;html=1;align=center;verticalAlign=middle;whiteSpace=wrap;rounded=0;fontColor=#000000;" parent="1" vertex="1">
          <mxGeometry x="1030" y="110" width="60" height="15" as="geometry" />
        </mxCell>
        <mxCell id="xtBjh4fdduiDJycLXYyy-199" value="" style="ellipse;whiteSpace=wrap;html=1;aspect=fixed;fillColor=#FFFFFF;fontColor=#333333;strokeColor=#000000;" parent="1" vertex="1">
          <mxGeometry x="1050" y="131.25" width="20" height="20" as="geometry" />
        </mxCell>
        <mxCell id="xtBjh4fdduiDJycLXYyy-201" value="" style="endArrow=none;html=1;rounded=0;strokeColor=#18141d;entryX=0.25;entryY=0;entryDx=0;entryDy=0;exitX=0.5;exitY=1;exitDx=0;exitDy=0;" parent="1" source="xtBjh4fdduiDJycLXYyy-199" target="xtBjh4fdduiDJycLXYyy-189" edge="1">
          <mxGeometry width="50" height="50" relative="1" as="geometry">
            <mxPoint x="700" y="440" as="sourcePoint" />
            <mxPoint x="700" y="415" as="targetPoint" />
            <Array as="points" />
          </mxGeometry>
        </mxCell>
        <mxCell id="xtBjh4fdduiDJycLXYyy-202" value="Dissmisal date" style="text;html=1;align=center;verticalAlign=middle;whiteSpace=wrap;rounded=0;fontColor=#000000;" parent="1" vertex="1">
          <mxGeometry x="1155" y="377.5" width="90" height="15" as="geometry" />
        </mxCell>
        <mxCell id="xtBjh4fdduiDJycLXYyy-203" value="" style="ellipse;whiteSpace=wrap;html=1;aspect=fixed;fillColor=#FFFFFF;fontColor=#333333;strokeColor=#000000;" parent="1" vertex="1">
          <mxGeometry x="1190" y="357.5" width="20" height="20" as="geometry" />
        </mxCell>
        <mxCell id="xtBjh4fdduiDJycLXYyy-204" value="" style="endArrow=none;html=1;rounded=0;strokeColor=#18141d;entryX=0.5;entryY=0;entryDx=0;entryDy=0;exitX=0.5;exitY=1;exitDx=0;exitDy=0;" parent="1" source="xtBjh4fdduiDJycLXYyy-195" target="xtBjh4fdduiDJycLXYyy-203" edge="1">
          <mxGeometry width="50" height="50" relative="1" as="geometry">
            <mxPoint x="1193.75" y="163.75" as="sourcePoint" />
            <mxPoint x="1193.75" y="198.75" as="targetPoint" />
            <Array as="points" />
          </mxGeometry>
        </mxCell>
        <mxCell id="xtBjh4fdduiDJycLXYyy-205" value="E-E" style="shape=rhombus;perimeter=rhombusPerimeter;whiteSpace=wrap;html=1;align=center;strokeColor=#000000;fillColor=#f5f5f5;fontColor=#333333;" parent="1" vertex="1">
          <mxGeometry x="838" y="180" width="70" height="40" as="geometry" />
        </mxCell>
        <mxCell id="xtBjh4fdduiDJycLXYyy-206" value="" style="endArrow=none;html=1;rounded=0;strokeColor=#000000;fontColor=#000000;exitX=1;exitY=0.25;exitDx=0;exitDy=0;entryX=0;entryY=0.5;entryDx=0;entryDy=0;" parent="1" source="xtBjh4fdduiDJycLXYyy-6" target="xtBjh4fdduiDJycLXYyy-205" edge="1">
          <mxGeometry relative="1" as="geometry">
            <mxPoint x="550" y="360" as="sourcePoint" />
            <mxPoint x="690" y="620" as="targetPoint" />
            <Array as="points">
              <mxPoint x="720" y="250" />
              <mxPoint x="720" y="200" />
              <mxPoint x="820" y="200" />
            </Array>
          </mxGeometry>
        </mxCell>
        <mxCell id="xtBjh4fdduiDJycLXYyy-207" value="(0,N)" style="resizable=0;html=1;whiteSpace=wrap;align=right;verticalAlign=bottom;fontColor=#000000;" parent="xtBjh4fdduiDJycLXYyy-206" connectable="0" vertex="1">
          <mxGeometry x="1" relative="1" as="geometry">
            <mxPoint as="offset" />
          </mxGeometry>
        </mxCell>
        <mxCell id="xtBjh4fdduiDJycLXYyy-208" value="" style="endArrow=none;html=1;rounded=0;strokeColor=#000000;fontColor=#000000;exitX=0;exitY=0.5;exitDx=0;exitDy=0;entryX=1;entryY=0.5;entryDx=0;entryDy=0;" parent="1" source="xtBjh4fdduiDJycLXYyy-189" target="xtBjh4fdduiDJycLXYyy-205" edge="1">
          <mxGeometry relative="1" as="geometry">
            <mxPoint x="990" y="307.5" as="sourcePoint" />
            <mxPoint x="1130" y="387.5" as="targetPoint" />
            <Array as="points">
              <mxPoint x="1010" y="200" />
            </Array>
          </mxGeometry>
        </mxCell>
        <mxCell id="xtBjh4fdduiDJycLXYyy-209" value="(1,1)" style="resizable=0;html=1;whiteSpace=wrap;align=right;verticalAlign=bottom;fontColor=#000000;" parent="xtBjh4fdduiDJycLXYyy-208" connectable="0" vertex="1">
          <mxGeometry x="1" relative="1" as="geometry">
            <mxPoint x="30" y="20" as="offset" />
          </mxGeometry>
        </mxCell>
        <mxCell id="xtBjh4fdduiDJycLXYyy-210" value="D-E" style="shape=rhombus;perimeter=rhombusPerimeter;whiteSpace=wrap;html=1;align=center;strokeColor=#000000;fillColor=#f5f5f5;fontColor=#333333;" parent="1" vertex="1">
          <mxGeometry x="850" y="581" width="82" height="36" as="geometry" />
        </mxCell>
        <mxCell id="xtBjh4fdduiDJycLXYyy-211" value="" style="endArrow=none;html=1;rounded=0;strokeColor=#000000;fontColor=#000000;exitX=1;exitY=0.5;exitDx=0;exitDy=0;entryX=0;entryY=0.5;entryDx=0;entryDy=0;" parent="1" source="xtBjh4fdduiDJycLXYyy-11" target="xtBjh4fdduiDJycLXYyy-210" edge="1">
          <mxGeometry relative="1" as="geometry">
            <mxPoint x="1190" y="505" as="sourcePoint" />
            <mxPoint x="1090" y="410" as="targetPoint" />
            <Array as="points">
              <mxPoint x="820" y="630" />
              <mxPoint x="820" y="599" />
            </Array>
          </mxGeometry>
        </mxCell>
        <mxCell id="xtBjh4fdduiDJycLXYyy-212" value="(1,N)" style="resizable=0;html=1;whiteSpace=wrap;align=right;verticalAlign=bottom;fontColor=#000000;" parent="xtBjh4fdduiDJycLXYyy-211" connectable="0" vertex="1">
          <mxGeometry x="1" relative="1" as="geometry">
            <mxPoint as="offset" />
          </mxGeometry>
        </mxCell>
        <mxCell id="xtBjh4fdduiDJycLXYyy-213" value="" style="endArrow=none;html=1;rounded=0;strokeColor=#000000;fontColor=#000000;exitX=0;exitY=0.5;exitDx=0;exitDy=0;entryX=1;entryY=0.5;entryDx=0;entryDy=0;" parent="1" source="xtBjh4fdduiDJycLXYyy-196" target="xtBjh4fdduiDJycLXYyy-210" edge="1">
          <mxGeometry relative="1" as="geometry">
            <mxPoint x="810" y="432.5" as="sourcePoint" />
            <mxPoint x="1060" y="284" as="targetPoint" />
            <Array as="points">
              <mxPoint x="880" y="320" />
              <mxPoint x="880" y="480" />
              <mxPoint x="1040" y="480" />
              <mxPoint x="1040" y="599" />
            </Array>
          </mxGeometry>
        </mxCell>
        <mxCell id="xtBjh4fdduiDJycLXYyy-214" value="(0,N)" style="resizable=0;html=1;whiteSpace=wrap;align=right;verticalAlign=bottom;fontColor=#000000;" parent="xtBjh4fdduiDJycLXYyy-213" connectable="0" vertex="1">
          <mxGeometry x="1" relative="1" as="geometry">
            <mxPoint x="30" as="offset" />
          </mxGeometry>
        </mxCell>
        <mxCell id="xtBjh4fdduiDJycLXYyy-215" value="" style="ellipse;whiteSpace=wrap;html=1;aspect=fixed;fillColor=#000000;fontColor=#333333;strokeColor=#000000;" parent="1" vertex="1">
          <mxGeometry x="1080" y="151.25" width="20" height="20" as="geometry" />
        </mxCell>
        <mxCell id="xtBjh4fdduiDJycLXYyy-216" value="" style="curved=1;endArrow=none;html=1;rounded=0;endFill=0;exitX=0;exitY=0.5;exitDx=0;exitDy=0;strokeColor=#000000;" parent="1" source="xtBjh4fdduiDJycLXYyy-215" edge="1">
          <mxGeometry width="50" height="50" relative="1" as="geometry">
            <mxPoint x="1070" y="188.75" as="sourcePoint" />
            <mxPoint x="1010" y="227.5" as="targetPoint" />
            <Array as="points">
              <mxPoint x="960" y="147.5" />
            </Array>
          </mxGeometry>
        </mxCell>
        <mxCell id="xtBjh4fdduiDJycLXYyy-220" value="ResultRelationship" style="shape=rhombus;perimeter=rhombusPerimeter;whiteSpace=wrap;html=1;align=center;strokeColor=#000000;fillColor=#f5f5f5;fontColor=#333333;" parent="1" vertex="1">
          <mxGeometry x="590" y="845" width="120" height="60" as="geometry" />
        </mxCell>
        <mxCell id="xtBjh4fdduiDJycLXYyy-221" value="" style="endArrow=none;html=1;rounded=0;strokeColor=#000000;fontColor=#000000;exitX=1;exitY=0.5;exitDx=0;exitDy=0;entryX=0;entryY=0.5;entryDx=0;entryDy=0;" parent="1" source="xtBjh4fdduiDJycLXYyy-12" target="xtBjh4fdduiDJycLXYyy-220" edge="1">
          <mxGeometry relative="1" as="geometry">
            <mxPoint x="575" y="745" as="sourcePoint" />
            <mxPoint x="625" y="865" as="targetPoint" />
            <Array as="points" />
          </mxGeometry>
        </mxCell>
        <mxCell id="xtBjh4fdduiDJycLXYyy-222" value="(1,1)" style="resizable=0;html=1;whiteSpace=wrap;align=right;verticalAlign=bottom;fontColor=#000000;" parent="xtBjh4fdduiDJycLXYyy-221" connectable="0" vertex="1">
          <mxGeometry x="1" relative="1" as="geometry">
            <mxPoint as="offset" />
          </mxGeometry>
        </mxCell>
        <mxCell id="xtBjh4fdduiDJycLXYyy-223" value="" style="ellipse;whiteSpace=wrap;html=1;aspect=fixed;fillColor=#000000;fontColor=#333333;strokeColor=#000000;" parent="1" vertex="1">
          <mxGeometry x="495" y="835" width="20" height="20" as="geometry" />
        </mxCell>
        <mxCell id="xtBjh4fdduiDJycLXYyy-224" value="" style="curved=1;endArrow=none;html=1;rounded=0;endFill=0;exitX=0.5;exitY=1;exitDx=0;exitDy=0;strokeColor=#000000;" parent="1" source="xtBjh4fdduiDJycLXYyy-223" edge="1">
          <mxGeometry width="50" height="50" relative="1" as="geometry">
            <mxPoint x="575" y="812.5" as="sourcePoint" />
            <mxPoint x="425" y="915" as="targetPoint" />
            <Array as="points">
              <mxPoint x="505" y="935" />
            </Array>
          </mxGeometry>
        </mxCell>
        <mxCell id="xtBjh4fdduiDJycLXYyy-225" value="" style="endArrow=none;html=1;rounded=0;strokeColor=#000000;fontColor=#000000;entryX=0.5;entryY=0;entryDx=0;entryDy=0;exitX=0.5;exitY=1;exitDx=0;exitDy=0;" parent="1" source="xtBjh4fdduiDJycLXYyy-228" target="xtBjh4fdduiDJycLXYyy-220" edge="1">
          <mxGeometry relative="1" as="geometry">
            <mxPoint x="650" y="765" as="sourcePoint" />
            <mxPoint x="600" y="885" as="targetPoint" />
            <Array as="points" />
          </mxGeometry>
        </mxCell>
        <mxCell id="xtBjh4fdduiDJycLXYyy-226" value="(1,N)" style="resizable=0;html=1;whiteSpace=wrap;align=right;verticalAlign=bottom;fontColor=#000000;" parent="xtBjh4fdduiDJycLXYyy-225" connectable="0" vertex="1">
          <mxGeometry x="1" relative="1" as="geometry">
            <mxPoint x="30" as="offset" />
          </mxGeometry>
        </mxCell>
        <mxCell id="xtBjh4fdduiDJycLXYyy-228" value="Medic" style="text;html=1;align=center;verticalAlign=middle;whiteSpace=wrap;rounded=0;fontColor=#000000;" parent="1" vertex="1">
          <mxGeometry x="628" y="785" width="45" height="20" as="geometry" />
        </mxCell>
        <mxCell id="xtBjh4fdduiDJycLXYyy-229" value="Patient" style="text;html=1;align=center;verticalAlign=middle;whiteSpace=wrap;rounded=0;fontColor=#000000;" parent="1" vertex="1">
          <mxGeometry x="775" y="865" width="40" height="20" as="geometry" />
        </mxCell>
        <mxCell id="xtBjh4fdduiDJycLXYyy-230" value="" style="endArrow=none;html=1;rounded=0;strokeColor=#000000;fontColor=#000000;entryX=1;entryY=0.5;entryDx=0;entryDy=0;exitX=0;exitY=0.5;exitDx=0;exitDy=0;" parent="1" source="xtBjh4fdduiDJycLXYyy-229" target="xtBjh4fdduiDJycLXYyy-220" edge="1">
          <mxGeometry relative="1" as="geometry">
            <mxPoint x="775" y="845" as="sourcePoint" />
            <mxPoint x="775" y="925" as="targetPoint" />
            <Array as="points" />
          </mxGeometry>
        </mxCell>
        <mxCell id="xtBjh4fdduiDJycLXYyy-231" value="(1,N)" style="resizable=0;html=1;whiteSpace=wrap;align=right;verticalAlign=bottom;fontColor=#000000;" parent="xtBjh4fdduiDJycLXYyy-230" connectable="0" vertex="1">
          <mxGeometry x="1" relative="1" as="geometry">
            <mxPoint x="25" as="offset" />
          </mxGeometry>
        </mxCell>
        <mxCell id="xtBjh4fdduiDJycLXYyy-232" value="Clinic" style="text;html=1;align=center;verticalAlign=middle;whiteSpace=wrap;rounded=0;fontColor=#000000;" parent="1" vertex="1">
          <mxGeometry x="630" y="945" width="40" height="20" as="geometry" />
        </mxCell>
        <mxCell id="xtBjh4fdduiDJycLXYyy-233" value="" style="endArrow=none;html=1;rounded=0;strokeColor=#000000;fontColor=#000000;entryX=0.5;entryY=1;entryDx=0;entryDy=0;exitX=0.5;exitY=0;exitDx=0;exitDy=0;" parent="1" source="xtBjh4fdduiDJycLXYyy-232" target="xtBjh4fdduiDJycLXYyy-220" edge="1">
          <mxGeometry relative="1" as="geometry">
            <mxPoint x="650" y="905" as="sourcePoint" />
            <mxPoint x="650" y="985" as="targetPoint" />
            <Array as="points" />
          </mxGeometry>
        </mxCell>
        <mxCell id="xtBjh4fdduiDJycLXYyy-234" value="(1,N)" style="resizable=0;html=1;whiteSpace=wrap;align=right;verticalAlign=bottom;fontColor=#000000;" parent="xtBjh4fdduiDJycLXYyy-233" connectable="0" vertex="1">
          <mxGeometry x="1" relative="1" as="geometry">
            <mxPoint x="30" y="20" as="offset" />
          </mxGeometry>
        </mxCell>
        <mxCell id="xtBjh4fdduiDJycLXYyy-237" value="VisitPrenotation" style="whiteSpace=wrap;html=1;align=center;fillColor=#f5f5f5;fontColor=#333333;strokeColor=#000000;" parent="1" vertex="1">
          <mxGeometry x="20" y="805" width="100" height="40" as="geometry" />
        </mxCell>
        <mxCell id="xtBjh4fdduiDJycLXYyy-238" value="" style="endArrow=none;html=1;rounded=0;strokeColor=#18141d;entryX=0.5;entryY=0;entryDx=0;entryDy=0;exitX=0.5;exitY=1;exitDx=0;exitDy=0;" parent="1" source="xtBjh4fdduiDJycLXYyy-239" target="xtBjh4fdduiDJycLXYyy-237" edge="1">
          <mxGeometry width="50" height="50" relative="1" as="geometry">
            <mxPoint x="70" y="685" as="sourcePoint" />
            <mxPoint x="60" y="725" as="targetPoint" />
          </mxGeometry>
        </mxCell>
        <mxCell id="xtBjh4fdduiDJycLXYyy-239" value="" style="ellipse;whiteSpace=wrap;html=1;aspect=fixed;fillColor=#f5f5f5;fontColor=#333333;strokeColor=#000000;" parent="1" vertex="1">
          <mxGeometry x="60" y="755" width="20" height="20" as="geometry" />
        </mxCell>
        <mxCell id="xtBjh4fdduiDJycLXYyy-240" value="DateTime" style="text;html=1;align=center;verticalAlign=middle;whiteSpace=wrap;rounded=0;fontColor=#000000;" parent="1" vertex="1">
          <mxGeometry x="45" y="735" width="50" height="20" as="geometry" />
        </mxCell>
        <mxCell id="xtBjh4fdduiDJycLXYyy-241" value="Medic" style="text;html=1;align=center;verticalAlign=middle;whiteSpace=wrap;rounded=0;fontColor=#000000;" parent="1" vertex="1">
          <mxGeometry x="210" y="735" width="40" height="20" as="geometry" />
        </mxCell>
        <mxCell id="xtBjh4fdduiDJycLXYyy-242" value="" style="endArrow=none;html=1;rounded=0;strokeColor=#000000;fontColor=#000000;entryX=0;entryY=0.5;entryDx=0;entryDy=0;exitX=1;exitY=0.5;exitDx=0;exitDy=0;" parent="1" source="xtBjh4fdduiDJycLXYyy-237" target="xtBjh4fdduiDJycLXYyy-245" edge="1">
          <mxGeometry relative="1" as="geometry">
            <mxPoint x="150" y="825" as="sourcePoint" />
            <mxPoint x="660" y="855" as="targetPoint" />
            <Array as="points" />
          </mxGeometry>
        </mxCell>
        <mxCell id="xtBjh4fdduiDJycLXYyy-243" value="(1,N)" style="resizable=0;html=1;whiteSpace=wrap;align=right;verticalAlign=bottom;fontColor=#000000;" parent="xtBjh4fdduiDJycLXYyy-242" connectable="0" vertex="1">
          <mxGeometry x="1" relative="1" as="geometry">
            <mxPoint as="offset" />
          </mxGeometry>
        </mxCell>
        <mxCell id="xtBjh4fdduiDJycLXYyy-244" value="Clinic" style="text;html=1;align=center;verticalAlign=middle;whiteSpace=wrap;rounded=0;fontColor=#000000;" parent="1" vertex="1">
          <mxGeometry x="310" y="735" width="40" height="20" as="geometry" />
        </mxCell>
        <mxCell id="xtBjh4fdduiDJycLXYyy-245" value="VisitRelationship" style="shape=rhombus;perimeter=rhombusPerimeter;whiteSpace=wrap;html=1;align=center;strokeColor=#000000;fillColor=#f5f5f5;fontColor=#333333;" parent="1" vertex="1">
          <mxGeometry x="170" y="795" width="120" height="60" as="geometry" />
        </mxCell>
        <mxCell id="xtBjh4fdduiDJycLXYyy-248" value="Patient" style="text;html=1;align=center;verticalAlign=middle;whiteSpace=wrap;rounded=0;fontColor=#000000;" parent="1" vertex="1">
          <mxGeometry x="210" y="895" width="40" height="20" as="geometry" />
        </mxCell>
        <mxCell id="xtBjh4fdduiDJycLXYyy-249" value="" style="endArrow=none;html=1;rounded=0;strokeColor=#000000;fontColor=#000000;entryX=0.5;entryY=1;entryDx=0;entryDy=0;exitX=0.5;exitY=0;exitDx=0;exitDy=0;" parent="1" source="xtBjh4fdduiDJycLXYyy-248" target="xtBjh4fdduiDJycLXYyy-245" edge="1">
          <mxGeometry relative="1" as="geometry">
            <mxPoint x="260" y="885" as="sourcePoint" />
            <mxPoint x="720" y="885" as="targetPoint" />
            <Array as="points" />
          </mxGeometry>
        </mxCell>
        <mxCell id="xtBjh4fdduiDJycLXYyy-250" value="(0,N)" style="resizable=0;html=1;whiteSpace=wrap;align=right;verticalAlign=bottom;fontColor=#000000;" parent="xtBjh4fdduiDJycLXYyy-249" connectable="0" vertex="1">
          <mxGeometry x="1" relative="1" as="geometry">
            <mxPoint x="30" y="20" as="offset" />
          </mxGeometry>
        </mxCell>
        <mxCell id="xtBjh4fdduiDJycLXYyy-251" value="" style="endArrow=none;html=1;rounded=0;strokeColor=#000000;fontColor=#000000;entryX=0.5;entryY=0;entryDx=0;entryDy=0;exitX=0.5;exitY=1;exitDx=0;exitDy=0;" parent="1" source="xtBjh4fdduiDJycLXYyy-241" target="xtBjh4fdduiDJycLXYyy-245" edge="1">
          <mxGeometry relative="1" as="geometry">
            <mxPoint x="240" y="905" as="sourcePoint" />
            <mxPoint x="240" y="865" as="targetPoint" />
            <Array as="points" />
          </mxGeometry>
        </mxCell>
        <mxCell id="xtBjh4fdduiDJycLXYyy-252" value="(1,N)" style="resizable=0;html=1;whiteSpace=wrap;align=right;verticalAlign=bottom;fontColor=#000000;" parent="xtBjh4fdduiDJycLXYyy-251" connectable="0" vertex="1">
          <mxGeometry x="1" relative="1" as="geometry">
            <mxPoint x="30" as="offset" />
          </mxGeometry>
        </mxCell>
        <mxCell id="xtBjh4fdduiDJycLXYyy-253" value="" style="endArrow=none;html=1;rounded=0;strokeColor=#000000;fontColor=#000000;entryX=1;entryY=0.5;entryDx=0;entryDy=0;exitX=0.5;exitY=1;exitDx=0;exitDy=0;" parent="1" source="xtBjh4fdduiDJycLXYyy-244" target="xtBjh4fdduiDJycLXYyy-245" edge="1">
          <mxGeometry relative="1" as="geometry">
            <mxPoint x="240" y="765" as="sourcePoint" />
            <mxPoint x="240" y="805" as="targetPoint" />
            <Array as="points">
              <mxPoint x="330" y="825" />
            </Array>
          </mxGeometry>
        </mxCell>
        <mxCell id="xtBjh4fdduiDJycLXYyy-254" value="(1,N)" style="resizable=0;html=1;whiteSpace=wrap;align=right;verticalAlign=bottom;fontColor=#000000;" parent="xtBjh4fdduiDJycLXYyy-253" connectable="0" vertex="1">
          <mxGeometry x="1" relative="1" as="geometry">
            <mxPoint x="30" as="offset" />
          </mxGeometry>
        </mxCell>
        <mxCell id="xtBjh4fdduiDJycLXYyy-255" value="" style="ellipse;whiteSpace=wrap;html=1;aspect=fixed;fillColor=#000000;fontColor=#333333;strokeColor=#000000;" parent="1" vertex="1">
          <mxGeometry x="30" y="775" width="20" height="20" as="geometry" />
        </mxCell>
        <mxCell id="xtBjh4fdduiDJycLXYyy-256" value="" style="curved=1;endArrow=none;html=1;rounded=0;endFill=0;exitX=1;exitY=0.5;exitDx=0;exitDy=0;strokeColor=#000000;" parent="1" source="xtBjh4fdduiDJycLXYyy-255" edge="1">
          <mxGeometry width="50" height="50" relative="1" as="geometry">
            <mxPoint x="110" y="752.5" as="sourcePoint" />
            <mxPoint x="140" y="845" as="targetPoint" />
            <Array as="points">
              <mxPoint x="140" y="775" />
            </Array>
          </mxGeometry>
        </mxCell>
        <mxCell id="I80M-G1sx2S55GYAkKX_-1" value="C-E" style="shape=rhombus;perimeter=rhombusPerimeter;whiteSpace=wrap;html=1;align=center;strokeColor=#000000;fillColor=#f5f5f5;fontColor=#333333;" vertex="1" parent="1">
          <mxGeometry x="838" y="230" width="82" height="36" as="geometry" />
        </mxCell>
        <mxCell id="I80M-G1sx2S55GYAkKX_-2" value="" style="endArrow=none;html=1;rounded=0;strokeColor=#000000;fontColor=#000000;exitX=1;exitY=0.25;exitDx=0;exitDy=0;entryX=0;entryY=0.5;entryDx=0;entryDy=0;" edge="1" parent="1" source="xtBjh4fdduiDJycLXYyy-10" target="I80M-G1sx2S55GYAkKX_-1">
          <mxGeometry relative="1" as="geometry">
            <mxPoint x="741" y="487.5" as="sourcePoint" />
            <mxPoint x="799" y="456.5" as="targetPoint" />
            <Array as="points">
              <mxPoint x="760" y="488" />
              <mxPoint x="759" y="248" />
            </Array>
          </mxGeometry>
        </mxCell>
        <mxCell id="I80M-G1sx2S55GYAkKX_-3" value="(1,N)" style="resizable=0;html=1;whiteSpace=wrap;align=right;verticalAlign=bottom;fontColor=#000000;" connectable="0" vertex="1" parent="I80M-G1sx2S55GYAkKX_-2">
          <mxGeometry x="1" relative="1" as="geometry">
            <mxPoint as="offset" />
          </mxGeometry>
        </mxCell>
        <mxCell id="I80M-G1sx2S55GYAkKX_-4" value="" style="endArrow=none;html=1;rounded=0;strokeColor=#000000;fontColor=#000000;exitX=0;exitY=0.75;exitDx=0;exitDy=0;entryX=1;entryY=0.5;entryDx=0;entryDy=0;" edge="1" parent="1" source="xtBjh4fdduiDJycLXYyy-189" target="I80M-G1sx2S55GYAkKX_-1">
          <mxGeometry relative="1" as="geometry">
            <mxPoint x="1150" y="245" as="sourcePoint" />
            <mxPoint x="960" y="609" as="targetPoint" />
            <Array as="points">
              <mxPoint x="1000" y="210" />
              <mxPoint x="1000" y="248" />
            </Array>
          </mxGeometry>
        </mxCell>
        <mxCell id="I80M-G1sx2S55GYAkKX_-5" value="(0,N)" style="resizable=0;html=1;whiteSpace=wrap;align=right;verticalAlign=bottom;fontColor=#000000;" connectable="0" vertex="1" parent="I80M-G1sx2S55GYAkKX_-4">
          <mxGeometry x="1" relative="1" as="geometry">
            <mxPoint x="30" as="offset" />
          </mxGeometry>
        </mxCell>
        <mxCell id="I80M-G1sx2S55GYAkKX_-7" value="" style="ellipse;whiteSpace=wrap;html=1;aspect=fixed;fillColor=#f5f5f5;fontColor=#333333;strokeColor=#000000;" vertex="1" parent="1">
          <mxGeometry x="45" y="478.75" width="20" height="20" as="geometry" />
        </mxCell>
        <mxCell id="I80M-G1sx2S55GYAkKX_-8" value="Day" style="text;html=1;align=center;verticalAlign=middle;whiteSpace=wrap;rounded=0;fontColor=#000000;" vertex="1" parent="1">
          <mxGeometry x="40" y="498.75" width="30" height="20" as="geometry" />
        </mxCell>
        <mxCell id="I80M-G1sx2S55GYAkKX_-12" value="" style="endArrow=none;html=1;rounded=0;strokeColor=#000000;fontColor=#000000;exitX=0.75;exitY=1;exitDx=0;exitDy=0;entryX=0.5;entryY=0;entryDx=0;entryDy=0;" edge="1" parent="1" source="xtBjh4fdduiDJycLXYyy-87" target="xtBjh4fdduiDJycLXYyy-88">
          <mxGeometry relative="1" as="geometry">
            <mxPoint x="150" y="443" as="sourcePoint" />
            <mxPoint x="270" y="570" as="targetPoint" />
            <Array as="points" />
          </mxGeometry>
        </mxCell>
        <mxCell id="I80M-G1sx2S55GYAkKX_-13" value="(0,1)" style="resizable=0;html=1;whiteSpace=wrap;align=right;verticalAlign=bottom;fontColor=#000000;" connectable="0" vertex="1" parent="I80M-G1sx2S55GYAkKX_-12">
          <mxGeometry x="1" relative="1" as="geometry">
            <mxPoint x="30" as="offset" />
          </mxGeometry>
        </mxCell>
        <mxCell id="I80M-G1sx2S55GYAkKX_-14" value="" style="endArrow=none;html=1;rounded=0;strokeColor=#000000;fontColor=#000000;exitX=0.25;exitY=1;exitDx=0;exitDy=0;entryX=0.5;entryY=0;entryDx=0;entryDy=0;" edge="1" parent="1" source="xtBjh4fdduiDJycLXYyy-87" target="I80M-G1sx2S55GYAkKX_-7">
          <mxGeometry relative="1" as="geometry">
            <mxPoint x="130" y="453" as="sourcePoint" />
            <mxPoint x="150" y="483" as="targetPoint" />
            <Array as="points" />
          </mxGeometry>
        </mxCell>
        <mxCell id="I80M-G1sx2S55GYAkKX_-15" value="(0,1)" style="resizable=0;html=1;whiteSpace=wrap;align=right;verticalAlign=bottom;fontColor=#000000;" connectable="0" vertex="1" parent="I80M-G1sx2S55GYAkKX_-14">
          <mxGeometry x="1" relative="1" as="geometry">
            <mxPoint x="40" as="offset" />
          </mxGeometry>
        </mxCell>
      </root>
    </mxGraphModel>
  </diagram>
</mxfile>
